<?xml version="1.0" standalone="no"?>
<!DOCTYPE svg PUBLIC "-//W3C//DTD SVG 20010904//EN"
 "http://www.w3.org/TR/2001/REC-SVG-20010904/DTD/svg10.dtd">
<svg version="1.0" xmlns="http://www.w3.org/2000/svg"
 width="1280.000000pt" height="1280.000000pt" viewBox="0 0 1280.000000 1280.000000"
 preserveAspectRatio="xMidYMid meet">
<metadata>
Created by potrace 1.14, written by Peter Selinger 2001-2017
</metadata>
<g transform="translate(0.000000,1280.000000) scale(0.100000,-0.100000)"
fill="#000000" stroke="none">
<path d="M6095 12793 c-1465 -75 -2812 -621 -3919 -1586 -150 -132 -464 -445
-592 -592 -822 -945 -1344 -2081 -1518 -3305 -49 -338 -60 -508 -60 -905 0
-398 12 -583 60 -915 247 -1730 1197 -3288 2622 -4303 936 -666 1990 -1054
3162 -1164 258 -24 853 -24 1105 0 833 81 1558 283 2275 637 1739 859 2994
2455 3416 4342 445 1993 -84 4070 -1430 5613 -130 149 -443 462 -592 592
-1097 956 -2424 1499 -3868 1583 -162 9 -510 11 -661 3z m3630 -2728 c33 -8
98 -34 145 -57 67 -32 102 -58 166 -122 131 -131 194 -282 194 -466 0 -105
-17 -190 -53 -271 -33 -76 -1297 -1968 -1449 -2171 -129 -171 -284 -359 -397
-483 -106 -114 -322 -333 -383 -386 l-57 -50 -47 93 c-328 654 -891 1216
-1552 1547 l-83 42 39 47 c55 65 346 349 467 456 128 114 350 291 490 393 200
145 2039 1366 2094 1390 30 13 79 30 110 38 77 18 243 18 316 0z m-3770 -2980
c586 -285 1069 -789 1329 -1384 l45 -102 -42 -30 c-94 -69 -361 -241 -497
-321 -247 -144 -300 -171 -305 -156 -122 362 -295 633 -546 855 -165 146 -402
286 -600 354 -52 18 -97 35 -101 38 -19 17 317 575 474 788 l38 52 37 -15 c21
-9 97 -44 168 -79z m-1105 -1209 c91 -6 251 -42 338 -76 368 -142 652 -440
777 -813 49 -146 65 -254 65 -431 0 -365 -103 -702 -309 -1007 -138 -206 -297
-364 -506 -504 -646 -433 -1494 -410 -2120 58 -181 135 -409 393 -492 557 -23
46 -28 67 -28 130 1 83 15 122 69 178 56 60 97 74 236 83 143 8 204 26 300 90
153 103 215 229 230 470 10 164 27 257 69 381 167 495 621 849 1135 887 56 4
112 6 126 5 14 -2 63 -5 110 -8z"/>
</g>
</svg>
